<svg width="38" height="28" viewBox="0 0 38 28" fill="none" xmlns="http://www.w3.org/2000/svg">
<path d="M37.2052 4.37303C36.9905 3.52736 36.5671 2.75552 35.9775 2.13479C35.3878 1.51407 34.6526 1.06625 33.8453 0.836192C30.8829 1.9739e-07 19 0 19 0C19 0 7.11708 1.9739e-07 4.15308 0.836192C3.34623 1.06666 2.61138 1.51464 2.02204 2.13532C1.4327 2.75601 1.00952 3.52764 0.794833 4.37303C0 7.49261 0 14 0 14C0 14 0 20.5074 0.794833 23.627C1.00951 24.4726 1.43288 25.2445 2.02254 25.8652C2.61219 26.4859 3.34745 26.9337 4.15467 27.1638C7.11708 28 19 28 19 28C19 28 30.8829 28 33.8469 27.1638C34.6542 26.9339 35.3895 26.4861 35.9792 25.8654C36.5689 25.2446 36.9922 24.4727 37.2068 23.627C38 20.5074 38 14 38 14C38 14 38 7.49261 37.2052 4.37303ZM15.1129 19.908V8.09202L25.0452 14L15.1129 19.908Z" fill="white"/>
</svg>
